<svg xmlns="http://www.w3.org/2000/svg" xmlns:xlink="http://www.w3.org/1999/xlink" width="354" height="487.25" viewBox="0 0 354 487.25">
  <defs>
    <clipPath id="clip-cocuk">
      <rect width="354" height="487.25"/>
    </clipPath>
  </defs>
  <g id="cocuk" clip-path="url(#clip-cocuk)">
    <g id="cocuk-2" data-name="cocuk" transform="translate(-80.194 -13.563)">
      <circle id="Ellipse_10" data-name="Ellipse 10" cx="150.5" cy="150.5" r="150.5" transform="translate(105.5 13.563)" fill="#5b412c"/>
      <path id="Path_14" data-name="Path 14" d="M368.883,451.68c0,62.344-225.764,62.344-225.764,0a112.882,112.882,0,0,1,225.764,0Z" fill="#0a717f"/>
      <path id="Path_15" data-name="Path 15" d="M256,338.8a112.91,112.91,0,0,0-111.212,93.467c19.419,50.416,203.007,50.416,222.425,0A112.909,112.909,0,0,0,256,338.8Z" fill="#19929b"/>
      <circle id="Ellipse_11" data-name="Ellipse 11" cx="44.717" cy="44.717" r="44.717" transform="translate(211.283 310.209)" fill="#ffbf94"/>
      <path id="Path_16" data-name="Path 16" d="M256,310.209a44.732,44.732,0,0,0-42.592,31.084,44.724,44.724,0,0,0,85.186,0A44.734,44.734,0,0,0,256,310.209Z" fill="#ed9572"/>
      <path id="Path_17" data-name="Path 17" d="M174.884,150.063c0,38.936-38.536,66.62-45.013,59.9-12-12.441-19.987-34.618-19.987-59.9,0-38.937,18.938-70.5,42.3-70.5S174.884,111.126,174.884,150.063Z" fill="#7c4e2e"/>
      <circle id="Ellipse_12" data-name="Ellipse 12" cx="36.537" cy="36.537" r="36.537" transform="translate(80.194 198.964)" fill="#ffbf94"/>
      <path id="Path_18" data-name="Path 18" d="M116.731,257.858a36.543,36.543,0,0,1-35.843-29.447,36.537,36.537,0,1,0,71.688,0A36.547,36.547,0,0,1,116.731,257.858Z" fill="#ed9572"/>
      <circle id="Ellipse_13" data-name="Ellipse 13" cx="36.537" cy="36.537" r="36.537" transform="translate(358.733 198.964)" fill="#ffbf94"/>
      <path id="Path_19" data-name="Path 19" d="M395.27,257.858a36.546,36.546,0,0,1-35.844-29.447,36.537,36.537,0,1,0,71.688,0A36.545,36.545,0,0,1,395.27,257.858Z" fill="#ed9572"/>
      <path id="Path_20" data-name="Path 20" d="M384,180.969c-2.857-68.226-55.773-122.666-127.967-122.7h-.06c-72.194.03-125.109,54.471-127.967,122.7h-.124v78.526H128c2.857,68.224,60.13,100.864,127.967,100.884h.06c67.836-.02,125.11-32.66,127.967-100.884h.123V180.969Z" fill="#fff2dc"/>
      <path id="Path_21" data-name="Path 21" d="M384,180.969c-2.857-68.226-55.773-122.666-127.967-122.7h-.06c-72.194.03-125.109,54.471-127.967,122.7h-.124v78.526H128c2.857,68.224,60.13,100.864,127.967,100.884h.06c67.836-.02,125.11-32.66,127.967-100.884h.123V180.969Z" fill="#ffbf94"/>
      <path id="Path_22" data-name="Path 22" d="M300.711,355.178a44.712,44.712,0,0,1-89.423-.1q-5.169-1.3-10.126-2.936-.069,1.386-.071,2.788a54.91,54.91,0,1,0,109.82,0c0-.889-.025-1.771-.066-2.649Q305.883,353.889,300.711,355.178Z" fill="#fff"/>
      <path id="Path_23" data-name="Path 23" d="M252.135,38.563c61.365,0,80.678,28.38,109.133,52.487,23.367,19.8,57.232,11.227,57.232,11.966,0,28.162-106.367,50.991-166.365,50.991S149.5,131.178,149.5,103.016,192.137,38.563,252.135,38.563Z" fill="#7c4e2e"/>
      <path id="Path_24" data-name="Path 24" d="M142.119,451.68c0,17.054,16.9,29.436,41.444,37.159V364.3A112.628,112.628,0,0,0,142.119,451.68Z" fill="#e5e5e5"/>
      <path id="Path_25" data-name="Path 25" d="M369.883,451.68a112.529,112.529,0,0,0-34.318-81.038V486.387C356.2,478.6,369.883,467.029,369.883,451.68Z" fill="#e5e5e5"/>
      <path id="Path_26" data-name="Path 26" d="M143.788,432.266c4.819,12.511,19.754,21.914,39.775,28.215V364.3A112.769,112.769,0,0,0,143.788,432.266Z" fill="#fff"/>
      <path id="Path_27" data-name="Path 27" d="M368.213,432.266a112.615,112.615,0,0,0-32.648-61.62v87.376C351.967,451.824,363.984,443.242,368.213,432.266Z" fill="#fff"/>
      <circle id="Ellipse_14" data-name="Ellipse 14" cx="30.538" cy="30.538" r="30.538" transform="translate(143.664 239.317)" fill="#f97a7a"/>
      <circle id="Ellipse_15" data-name="Ellipse 15" cx="30.538" cy="30.538" r="30.538" transform="translate(307.262 239.317)" fill="#f97a7a"/>
      <circle id="Ellipse_16" data-name="Ellipse 16" cx="17.45" cy="17.45" r="17.45" transform="translate(190.831 198.964)" fill="#493e2f"/>
      <circle id="Ellipse_17" data-name="Ellipse 17" cx="17.45" cy="17.45" r="17.45" transform="translate(285.932 198.964)" fill="#493e2f"/>
      <path id="Path_28" data-name="Path 28" d="M256.545,293.734a35.34,35.34,0,0,1-25.065-10.365,6,6,0,0,1,8.485-8.486,23.471,23.471,0,0,0,33.16,0,6,6,0,0,1,8.486,8.486A35.339,35.339,0,0,1,256.545,293.734Z" fill="#f97a7a"/>
    </g>
  </g>
</svg>
