<svg xmlns="http://www.w3.org/2000/svg" xmlns:xlink="http://www.w3.org/1999/xlink" width="354" height="487.25" viewBox="0 0 354 487.25">
  <defs>
    <clipPath id="clip-yetiskin">
      <rect width="354" height="487.25"/>
    </clipPath>
  </defs>
  <g id="yetiskin" clip-path="url(#clip-yetiskin)">
    <g id="yetiskin-2" data-name="yetiskin" transform="translate(-78.997 -12.373)">
      <path id="Path_1" data-name="Path 1" d="M417.658,195.985a35.594,35.594,0,0,0,5.574-53.765,45.871,45.871,0,0,0-42.576-62.932c-.313,0-.621.018-.932.023A45.89,45.89,0,0,0,322.907,40.77,56.648,56.648,0,0,0,256,15.245,56.648,56.648,0,0,0,189.089,40.77a45.888,45.888,0,0,0-56.815,38.541c-.311-.006-.619-.023-.932-.023A45.869,45.869,0,0,0,88.765,142.22a35.595,35.595,0,0,0,5.573,53.765,19.959,19.959,0,0,0,20.734,34.068,143.021,143.021,0,0,0,281.209-.378,19.956,19.956,0,0,0,21.377-33.69Z" fill="#96914b"/>
      <path id="Path_2" data-name="Path 2" d="M367.7,453.356c0,61.693-223.41,61.693-223.41,0a111.705,111.705,0,0,1,223.41,0Z" fill="#d1375f"/>
      <path id="Path_3" data-name="Path 3" d="M256,341.652a111.732,111.732,0,0,0-110.052,92.491c19.216,49.892,200.889,49.892,220.1,0A111.732,111.732,0,0,0,256,341.652Z" fill="#ef5b7b"/>
      <circle id="Ellipse_1" data-name="Ellipse 1" cx="36.156" cy="36.156" r="36.156" transform="translate(219.844 203.276)" fill="#fff2dc"/>
      <circle id="Ellipse_2" data-name="Ellipse 2" cx="44.25" cy="44.25" r="44.25" transform="translate(211.75 313.361)" fill="#ffbf94"/>
      <path id="Path_4" data-name="Path 4" d="M256,313.361a44.264,44.264,0,0,0-42.148,30.759,44.257,44.257,0,0,0,84.3,0A44.267,44.267,0,0,0,256,313.361Z" fill="#ed9572"/>
      <circle id="Ellipse_3" data-name="Ellipse 3" cx="36.156" cy="36.156" r="36.156" transform="translate(219.844 203.276)" fill="#fff2dc"/>
      <path id="Path_5" data-name="Path 5" d="M265.809,405.646a9.968,9.968,0,0,0,17.08-8.354,9.985,9.985,0,0,0,13.7-13.7,10.156,10.156,0,0,0,1.416.112,9.991,9.991,0,0,0,6.859-17.264,9.97,9.97,0,0,0,4.9-10.879q-4.816-2.666-9.914-4.863a44.246,44.246,0,1,1-87.329-.373,110.913,110.913,0,0,0-10.2,4.914,9.943,9.943,0,0,0,4.822,11.2A9.992,9.992,0,0,0,214,383.709a10.183,10.183,0,0,0,1.417-.112,9.984,9.984,0,0,0,13.694,13.7,9.986,9.986,0,0,0,17.08,8.354,10,10,0,0,0,19.617,0Z" fill="#fff"/>
      <circle id="Ellipse_4" data-name="Ellipse 4" cx="36.156" cy="36.156" r="36.156" transform="translate(82.027 203.276)" fill="#ffbf94"/>
      <path id="Path_6" data-name="Path 6" d="M118.183,261.557a36.162,36.162,0,0,1-35.469-29.141,36.155,36.155,0,1,0,70.939,0A36.164,36.164,0,0,1,118.183,261.557Z" fill="#ed9572"/>
      <circle id="Ellipse_5" data-name="Ellipse 5" cx="36.155" cy="36.155" r="36.155" transform="translate(357.662 203.277)" fill="#ffbf94"/>
      <path id="Path_7" data-name="Path 7" d="M393.816,261.557a36.163,36.163,0,0,1-35.469-29.141,36.156,36.156,0,1,0,70.936,0A36.156,36.156,0,0,1,393.816,261.557Z" fill="#ed9572"/>
      <path id="Path_8" data-name="Path 8" d="M382.662,185.468C379.834,117.954,327.471,64.081,256.03,64.051h-.059c-71.441.03-123.805,53.9-126.632,121.417h-.122v77.707h.122c2.828,67.514,59.5,99.813,126.632,99.832h.059c67.128-.02,123.8-32.318,126.632-99.832h.121V185.468h-.121Z" fill="#fff2dc"/>
      <path id="Path_9" data-name="Path 9" d="M382.662,185.468C379.834,117.954,327.471,64.081,256.03,64.051h-.059c-71.441.03-123.805,53.9-126.632,121.417h-.122v77.707h.122c2.828,67.514,59.5,99.813,126.632,99.832h.059c67.128-.02,123.8-32.318,126.632-99.832h.121V185.468h-.121Z" fill="#ffbf94"/>
      <path id="Path_10" data-name="Path 10" d="M382.275,237.782A30.788,30.788,0,0,1,353,197.545a39.515,39.515,0,0,1-22.578-29.616A53.958,53.958,0,0,1,269.7,130.6a46.9,46.9,0,0,1-5.611.335H247.9a46.872,46.872,0,0,1-5.61-.335,53.956,53.956,0,0,1-60.718,37.329A39.516,39.516,0,0,1,159,197.545a30.775,30.775,0,1,1-49.1-13.974,39.421,39.421,0,0,1,27.431-60.909A53.971,53.971,0,0,1,206.684,63.2,46.5,46.5,0,0,1,247.9,38.117h16.188A46.5,46.5,0,0,1,305.316,63.2a53.947,53.947,0,0,1,69.356,59.464,39.419,39.419,0,0,1,27.43,60.909,30.715,30.715,0,0,1-19.827,54.211Z" fill="#b2af79"/>
      <path id="Path_11" data-name="Path 11" d="M169.023,383.231l-.03.037q-2.317,2.877-4.447,5.9l-.005.008a111.449,111.449,0,0,0-12.4,22.951l0,.008q-1.379,3.475-2.529,7.063c-.012.039-.024.078-.037.117q-1.13,3.539-2.028,7.178c-.015.062-.029.122-.044.183q-.885,3.618-1.532,7.325c-.006.033-.013.064-.019.1,0,0,0,0,0,0a112.284,112.284,0,0,0-1.653,19.21c0,13.411,10.561,23.9,27.085,31.485V380.4C170.578,381.326,169.795,382.274,169.023,383.231Z" fill="#ffbf94"/>
      <path id="Path_12" data-name="Path 12" d="M366.051,434.188s0,0,0,0c-.006-.032-.014-.064-.02-.1q-.651-3.734-1.545-7.379c-.014-.058-.029-.115-.043-.174q-.9-3.657-2.041-7.213c-.016-.045-.029-.091-.045-.136q-1.152-3.582-2.533-7.058c-.01-.021-.018-.045-.027-.066a110.99,110.99,0,0,0-8.385-16.766c-.014-.025-.029-.05-.045-.074q-1.922-3.147-4.045-6.151-.043-.063-.09-.126-2.1-2.971-4.393-5.8l-.137-.168c-.762-.937-1.533-1.865-2.324-2.776V484.993c16.662-7.589,27.324-18.12,27.324-31.6A112.285,112.285,0,0,0,366.051,434.188Z" fill="#ffbf94"/>
      <circle id="Ellipse_8" data-name="Ellipse 8" cx="17.45" cy="17.45" r="17.45" transform="translate(187.644 200.11)" fill="#493e2f"/>
      <circle id="Ellipse_9" data-name="Ellipse 9" cx="17.45" cy="17.45" r="17.45" transform="translate(282.744 200.11)" fill="#493e2f"/>
      <path id="Path_13" data-name="Path 13" d="M253.205,294.88a35.34,35.34,0,0,1-25.065-10.365,6,6,0,0,1,8.485-8.486,23.472,23.472,0,0,0,33.161,0,6,6,0,0,1,8.484,8.486A35.341,35.341,0,0,1,253.205,294.88Z" fill="#f97a7a"/>
    </g>
  </g>
</svg>
